<svg width="25" height="22" viewBox="0 0 25 22" fill="none" xmlns="http://www.w3.org/2000/svg">
<path d="M23.9067 0L0.813122 4.73812C-0.205179 5.30669 -0.0556664 6.12007 0.146377 6.45568C0.954553 7.3046 1.90416 8.29171 2.51029 8.82474C2.66321 8.95922 2.87397 9.1801 3.41949 9.1801C9.82428 7.89686 22.743 5.30669 23.1794 5.21193C23.6158 5.11717 23.6845 4.85657 23.6643 4.73812C23.9876 3.94843 24.7068 2.144 24.9978 1.24376C25.0463 0.296132 24.2906 0.0197422 23.9067 0Z" fill="black"/>
<path d="M22.5126 6.9295L17.3605 7.99557C16.8756 8.09591 16.5927 8.39274 16.5119 8.52861L12.9358 17.5903C12.8347 17.8272 12.6448 18.3602 12.6933 18.5971C12.7418 18.834 12.8347 18.9722 12.8751 19.0117L15.3603 21.44C16.2089 22.2691 17.1181 22.1507 17.6127 21.2623C18.1073 20.3739 22.8667 7.97687 23.0581 7.46253C23.0581 7.0361 22.6945 6.9295 22.5126 6.9295Z" fill="black"/>
<path d="M14.0268 8.64706L4.51052 10.5423C4.07411 10.7318 4.32868 11.0556 4.51052 11.1938C6.42994 13.089 10.3415 16.9506 10.6325 17.2349C10.9234 17.5192 11.1982 17.2349 11.2992 17.0572C12.3094 14.5697 14.3662 9.48808 14.5117 9.06165C14.6572 8.63522 14.249 8.60758 14.0268 8.64706Z" fill="black"/>
</svg>
