<?xml version="1.0" standalone="no"?>
<!DOCTYPE svg PUBLIC "-//W3C//DTD SVG 20010904//EN"
 "http://www.w3.org/TR/2001/REC-SVG-20010904/DTD/svg10.dtd">
<svg version="1.0" xmlns="http://www.w3.org/2000/svg"
 width="1672.000000pt" height="941.000000pt" viewBox="0 0 1672.000000 941.000000"
 preserveAspectRatio="xMidYMid meet">
<metadata>
Created by potrace 1.16, written by Peter Selinger 2001-2019
</metadata>
<g transform="translate(0.000000,941.000000) scale(0.100000,-0.100000)"
fill="#000000" stroke="none">
<path d="M16520 9386 c-72 -30 -229 -126 -306 -187 -160 -127 -336 -362 -448
-600 -80 -170 -113 -260 -230 -626 -218 -678 -372 -1012 -639 -1378 -158 -216
-413 -480 -597 -617 -204 -152 -327 -224 -755 -443 -148 -76 -326 -169 -395
-208 -461 -258 -839 -581 -1124 -961 -198 -263 -362 -556 -484 -861 -88 -221
-114 -310 -218 -740 -112 -463 -129 -529 -201 -745 -198 -599 -437 -1022 -792
-1405 -220 -237 -456 -422 -704 -550 -53 -27 -97 -53 -97 -57 0 -5 34 -8 76
-8 85 0 92 3 287 132 267 176 563 470 775 771 146 206 331 551 417 777 73 191
118 317 146 409 30 97 141 542 204 813 87 379 230 740 419 1060 92 156 201
317 280 413 178 218 326 366 535 534 257 207 377 278 1022 611 315 163 391
207 554 319 143 98 280 217 435 377 396 408 674 904 874 1559 222 726 350 992
603 1256 139 144 285 242 463 309 62 24 96 42 98 53 5 27 -127 23 -198 -7z"/>
<path d="M2379 7089 c-79 -14 -141 -60 -187 -138 l-27 -46 0 -2275 0 -2276 26
-49 c14 -28 44 -64 67 -82 89 -68 -142 -63 2913 -63 2517 0 2773 1 2816 16 66
22 126 74 157 136 l26 52 0 2256 c0 2500 5 2305 -65 2387 -19 23 -56 50 -85
62 l-51 22 -2778 2 c-1528 1 -2793 -1 -2812 -4z m5576 -80 c25 -7 56 -27 82
-54 55 -58 65 -107 61 -305 l-3 -155 -2930 0 -2930 0 0 185 c0 184 0 185 27
232 28 46 74 82 126 98 43 13 5519 12 5567 -1z m143 -2574 c2 -1391 0 -1995
-8 -2031 -13 -60 -56 -117 -111 -144 -38 -20 -71 -20 -2811 -20 -2676 0 -2774
1 -2814 19 -54 25 -101 83 -114 143 -11 55 -15 4000 -3 4011 3 4 1323 6 2932
5 l2926 -3 3 -1980z"/>
<path d="M2552 6864 c-57 -40 -71 -149 -26 -203 27 -32 89 -55 120 -45 59 19
76 30 94 59 37 60 21 153 -34 189 -33 21 -124 21 -154 0z m113 -79 c14 -13 25
-29 25 -35 0 -14 -46 -60 -60 -60 -14 0 -60 46 -60 60 0 14 46 60 60 60 6 0
22 -11 35 -25z"/>
<path d="M2861 6854 c-93 -78 -38 -237 82 -237 84 0 137 51 137 133 0 85 -46
130 -134 130 -44 0 -60 -5 -85 -26z m124 -69 c14 -13 25 -29 25 -35 0 -14 -46
-60 -60 -60 -14 0 -60 46 -60 60 0 14 46 60 60 60 6 0 22 -11 35 -25z"/>
<path d="M3189 6865 c-52 -28 -74 -116 -44 -179 33 -69 144 -91 204 -40 41 34
58 91 42 143 -17 60 -61 91 -124 91 -29 -1 -64 -7 -78 -15z m119 -83 c19 -25
14 -49 -14 -71 -33 -26 -39 -26 -64 -1 -26 26 -25 55 1 81 22 22 55 19 77 -9z"/>
<path d="M2700 6083 c-42 -13 -62 -30 -80 -68 -20 -40 -20 -60 -20 -1001 0
-1086 -6 -1006 80 -1051 l44 -23 1105 2 1106 3 32 23 c66 47 64 3 61 1069 -3
955 -3 962 -24 990 -11 15 -36 36 -55 45 -32 17 -106 18 -1134 17 -605 0
-1107 -3 -1115 -6z m2230 -93 c20 -20 20 -33 20 -877 l-1 -858 -82 87 c-45 47
-158 168 -252 268 -93 100 -180 186 -193 191 -34 13 -79 11 -111 -6 -16 -8
-64 -53 -107 -99 l-79 -85 -237 257 c-310 336 -304 330 -349 342 -48 13 -112
-2 -143 -34 -11 -12 -176 -185 -366 -385 l-345 -364 -3 768 -2 769 22 23 21
23 1094 0 c1080 0 1093 0 1113 -20z m-1358 -902 c27 -29 151 -164 276 -300
228 -249 251 -269 300 -254 11 4 61 49 111 101 51 52 100 95 110 95 10 0 135
-125 297 -296 238 -253 279 -301 282 -330 2 -25 -3 -40 -22 -59 l-25 -25
-1076 0 c-1144 0 -1121 -1 -1139 45 -3 9 -6 67 -5 128 l0 112 316 330 c173
182 353 369 399 418 55 57 91 87 105 87 14 0 41 -20 71 -52z"/>
<path d="M4370 5811 c-77 -41 -118 -102 -127 -187 -9 -81 12 -140 68 -196 112
-112 298 -85 375 55 67 122 16 280 -108 331 -53 22 -163 20 -208 -3z m166 -70
c103 -47 132 -157 62 -237 -80 -91 -188 -85 -256 16 -19 28 -23 45 -20 86 5
63 34 105 90 133 52 26 71 26 124 2z"/>
<path d="M5374 5775 c-15 -58 -86 -55 1181 -55 1267 0 1196 -3 1181 55 l-6 25
-1175 0 -1175 0 -6 -25z"/>
<path d="M5380 5355 c-7 -8 -10 -25 -6 -40 l6 -25 1172 2 c1103 3 1171 4 1182
21 8 12 8 22 0 35 -11 16 -79 17 -1176 20 -1023 2 -1167 0 -1178 -13z"/>
<path d="M5374 4896 c-3 -14 -3 -30 1 -35 4 -8 366 -11 1180 -11 1135 0 1174
1 1180 19 3 10 3 26 -1 35 -6 15 -101 16 -1180 16 l-1174 0 -6 -24z"/>
<path d="M5380 4476 c-6 -8 -10 -25 -8 -38 l3 -23 1174 0 c1107 0 1174 1 1185
18 8 12 8 22 0 35 -11 16 -79 17 -1176 20 -1008 2 -1167 0 -1178 -12z"/>
<path d="M5374 4024 c-4 -14 -2 -30 3 -35 13 -13 1781 -15 1795 -1 5 5 8 20 6
33 l-3 24 -897 3 -898 2 -6 -26z"/>
<path d="M2626 3597 c-11 -8 -17 -23 -14 -38 l3 -24 2335 0 2335 0 3 29 c2 16
-2 32 -10 37 -7 5 -1053 8 -2324 8 -1860 0 -2314 -2 -2328 -12z"/>
<path d="M6324 3256 l-34 -34 0 -246 c0 -262 5 -292 49 -316 13 -6 179 -10
466 -10 l447 0 29 29 29 29 0 262 0 262 -29 29 -29 29 -447 0 -447 0 -34 -34z
m894 -48 c18 -18 17 -461 -1 -476 -15 -13 -814 -11 -834 1 -10 6 -13 65 -13
237 0 208 2 230 18 239 26 16 814 15 830 -1z"/>
<path d="M2617 3183 c-11 -11 -8 -48 5 -61 9 -9 383 -12 1623 -12 885 0 1616
4 1623 9 8 5 12 21 10 37 l-3 29 -1626 3 c-894 1 -1629 -1 -1632 -5z"/>
<path d="M2620 2755 c-7 -8 -10 -25 -6 -40 l6 -25 1628 2 1627 3 0 35 0 35
-1621 3 c-1426 2 -1623 0 -1634 -13z"/>
<path d="M10493 5248 c-6 -7 -63 -134 -127 -283 -65 -148 -199 -453 -298 -677
-101 -228 -178 -414 -174 -423 3 -8 17 -15 34 -15 27 0 32 9 147 268 272 614
475 1086 475 1107 0 32 -38 47 -57 23z"/>
<path d="M9381 4900 c-240 -246 -272 -282 -269 -307 2 -22 63 -87 273 -291
185 -179 277 -262 292 -262 23 0 38 27 28 51 -3 8 -120 124 -260 258 l-254
245 149 155 c82 86 176 183 210 216 111 109 162 172 155 195 -16 51 -46 26
-324 -260z"/>
<path d="M10747 5103 c-25 -24 5 -60 238 -287 l246 -238 -256 -251 c-220 -214
-256 -254 -253 -276 2 -18 10 -27 25 -29 17 -3 74 48 250 221 125 123 247 241
271 262 77 68 80 64 -218 353 -239 232 -282 267 -303 245z"/>
</g>
</svg>
