<?xml version="1.0" standalone="no"?>
<!DOCTYPE svg PUBLIC "-//W3C//DTD SVG 20010904//EN"
 "http://www.w3.org/TR/2001/REC-SVG-20010904/DTD/svg10.dtd">
<svg version="1.0" xmlns="http://www.w3.org/2000/svg"
 width="1672.000000pt" height="941.000000pt" viewBox="0 0 1672.000000 941.000000"
 preserveAspectRatio="xMidYMid meet">
<metadata>
Created by potrace 1.16, written by Peter Selinger 2001-2019
</metadata>
<g transform="translate(0.000000,941.000000) scale(0.100000,-0.100000)"
fill="#000000" stroke="none">
<path d="M16571 9369 c-282 -154 -531 -420 -694 -745 -82 -162 -204 -511 -348
-994 -166 -557 -335 -914 -598 -1268 -65 -87 -152 -185 -280 -312 -186 -186
-328 -303 -517 -431 -205 -137 -278 -180 -869 -504 -474 -260 -729 -440 -980
-690 -244 -243 -421 -487 -573 -791 -152 -304 -233 -540 -371 -1091 -151 -597
-227 -837 -363 -1143 -229 -515 -527 -923 -933 -1278 -66 -58 -121 -109 -123
-114 -2 -4 22 -8 53 -8 l56 0 107 98 c558 508 896 1073 1137 1898 24 83 85
315 136 515 88 352 159 593 221 749 212 536 486 930 887 1273 220 188 459 339
972 615 897 482 1327 848 1676 1424 198 326 285 544 513 1288 93 302 179 535
254 695 160 339 414 614 695 755 80 40 90 48 90 73 1 25 -2 27 -36 27 -25 0
-63 -14 -112 -41z"/>
<path d="M2284 6986 c-56 -25 -112 -84 -134 -142 -20 -55 -20 -64 -20 -2250 0
-1583 3 -2208 11 -2239 14 -56 79 -131 134 -156 38 -18 147 -19 2873 -19 2069
0 2845 3 2878 11 62 16 137 85 158 146 14 42 16 262 16 2254 0 2406 4 2248
-55 2325 -13 17 -48 44 -77 58 l-52 26 -2850 0 c-2390 -1 -2856 -3 -2882 -14z
m5749 -84 c20 -13 49 -45 64 -70 27 -45 28 -53 31 -214 l4 -168 -2961 0 -2961
0 0 163 c0 137 3 168 19 203 20 44 66 85 116 102 21 7 895 10 2840 9 l2810 -2
38 -23z m95 -2514 l-3 -1983 -22 -42 c-13 -23 -39 -54 -60 -70 l-36 -28 -2816
-3 c-1932 -2 -2827 0 -2852 8 -49 14 -86 44 -110 92 -20 39 -20 52 -20 1901 0
1024 0 1917 0 1985 l1 122 2960 0 2960 0 -2 -1982z"/>
<path d="M2495 6784 c-47 -24 -65 -53 -65 -107 0 -62 23 -105 65 -123 45 -18
79 -18 121 2 93 44 85 190 -12 230 -43 18 -72 18 -109 -2z m101 -89 c15 -23
15 -27 0 -50 -19 -29 -51 -32 -78 -8 -22 20 -23 41 -1 65 23 26 59 23 79 -7z"/>
<path d="M2834 6790 c-11 -4 -33 -23 -48 -41 -25 -29 -28 -39 -24 -86 4 -41
11 -60 33 -83 54 -56 158 -49 195 13 25 40 27 123 4 156 -30 42 -108 62 -160
41z m90 -86 c21 -20 20 -43 -1 -66 -22 -25 -59 -23 -77 4 -20 29 -20 34 4 58
24 24 53 26 74 4z"/>
<path d="M3154 6786 c-47 -21 -64 -52 -64 -117 0 -68 23 -103 80 -120 89 -27
170 29 170 117 0 49 -20 93 -51 113 -31 19 -101 23 -135 7z m102 -87 c17 -19
17 -23 3 -47 -18 -33 -54 -40 -80 -16 -23 21 -24 42 -2 66 21 24 55 23 79 -3z"/>
<path d="M2631 6054 c-65 -27 -61 43 -61 -1047 0 -905 1 -991 17 -1017 9 -16
27 -33 40 -39 17 -8 364 -11 1158 -11 l1135 0 32 29 33 29 3 986 c3 1093 5
1043 -61 1071 -28 11 -214 13 -1150 12 -843 -1 -1124 -4 -1146 -13z m2267 -76
c9 -9 12 -225 12 -913 l0 -900 -52 55 c-338 359 -441 460 -479 470 -67 18
-106 0 -195 -90 -43 -44 -81 -80 -84 -80 -4 0 -129 130 -279 290 -294 313
-302 320 -389 304 -42 -7 -70 -35 -447 -429 -121 -126 -248 -259 -282 -295
l-63 -65 0 813 c0 542 3 820 10 833 10 19 34 19 1123 19 852 0 1116 -3 1125
-12z m-1301 -1050 c60 -62 149 -156 198 -208 220 -234 279 -290 305 -290 19 0
49 24 115 91 98 99 116 112 139 103 13 -5 437 -447 525 -546 29 -33 30 -37 16
-52 -15 -14 -123 -16 -1116 -16 -1276 0 -1139 -14 -1139 118 l0 77 153 161
c566 599 640 674 668 674 21 0 49 -23 136 -112z"/>
<path d="M4315 5798 c-92 -32 -140 -106 -140 -218 0 -83 13 -116 66 -168 85
-83 235 -80 317 6 84 90 83 243 -2 328 -59 59 -159 81 -241 52z m163 -95 c47
-35 65 -69 65 -118 0 -116 -125 -193 -220 -135 -110 66 -98 217 21 271 49 22
87 17 134 -18z"/>
<path d="M5365 5797 c-13 -10 -16 -21 -11 -40 l6 -27 1182 2 c1112 3 1181 4
1192 21 8 12 8 22 0 35 -11 16 -79 17 -1181 20 -968 2 -1172 0 -1188 -11z"/>
<path d="M5362 5358 c-16 -16 -15 -43 2 -57 10 -8 328 -10 1186 -9 1105 3
1173 4 1184 21 8 12 8 22 0 35 -11 16 -80 17 -1186 20 -905 1 -1177 -1 -1186
-10z"/>
<path d="M5360 4916 c-6 -8 -10 -23 -8 -33 3 -17 56 -18 1193 -18 l1190 0 0
30 0 30 -1181 3 c-1024 2 -1183 0 -1194 -12z"/>
<path d="M5362 4478 c-7 -7 -12 -19 -12 -28 0 -9 5 -21 12 -28 9 -9 286 -12
1184 -12 1277 0 1205 -3 1190 55 l-6 25 -1178 0 c-903 0 -1181 -3 -1190 -12z"/>
<path d="M5366 4044 c-18 -17 -20 -32 -8 -52 7 -10 195 -12 908 -10 l899 3 3
23 c8 55 52 52 -904 52 -789 0 -884 -2 -898 -16z"/>
<path d="M2602 3611 c-8 -5 -12 -21 -10 -37 l3 -29 2339 0 c2217 0 2339 1
2350 18 8 12 8 22 0 35 -11 16 -134 17 -2340 19 -1281 2 -2335 -1 -2342 -6z"/>
<path d="M6330 3263 c-8 -3 -25 -15 -37 -26 -23 -20 -23 -23 -23 -294 0 -258
1 -274 20 -293 11 -11 30 -22 42 -25 13 -3 225 -4 471 -3 l449 3 19 24 c18 22
19 42 19 296 0 254 -1 274 -19 296 l-19 24 -454 2 c-249 1 -460 -1 -468 -4z
m885 -318 l0 -240 -435 0 -435 0 -3 230 c-1 126 0 235 3 242 3 11 93 13 437
11 l433 -3 0 -240z"/>
<path d="M2597 3173 c-11 -11 -8 -48 5 -61 9 -9 386 -12 1634 -12 1757 0 1650
-3 1642 52 l-3 23 -1636 3 c-899 1 -1639 -1 -1642 -5z"/>
<path d="M2594 2726 c-3 -8 -4 -23 -2 -33 3 -17 69 -18 1643 -18 l1640 0 0 30
0 30 -1638 3 c-1420 2 -1638 0 -1643 -12z"/>
<path d="M10412 5485 c-23 -19 -35 -44 -52 -107 -12 -46 -82 -290 -155 -543
-246 -852 -315 -1103 -315 -1145 0 -32 6 -48 28 -70 51 -51 171 -51 217 0 30
33 482 1605 501 1741 13 96 -39 149 -145 149 -38 0 -56 -6 -79 -25z m112 -55
c50 -18 49 -31 -15 -271 -109 -407 -417 -1468 -432 -1486 -14 -18 -83 -16
-102 3 -8 9 -13 24 -11 33 9 27 51 176 121 426 237 845 366 1281 382 1293 20
15 25 15 57 2z"/>
<path d="M9569 5193 c-19 -5 -561 -558 -577 -590 -13 -23 -15 -107 -4 -135 9
-21 516 -546 552 -570 32 -23 120 -24 161 -2 44 22 73 92 64 152 -6 44 -18 58
-221 263 -118 119 -214 220 -214 224 0 4 93 104 208 222 114 118 212 224 219
236 19 34 15 98 -7 135 -36 58 -109 85 -181 65z m81 -78 c32 -17 48 -56 34
-85 -5 -10 -109 -121 -231 -246 -126 -129 -223 -236 -223 -247 0 -10 100 -121
230 -255 164 -169 230 -244 230 -260 0 -26 -41 -72 -64 -72 -8 0 -21 3 -29 6
-9 3 -135 129 -281 279 -174 179 -266 281 -266 295 0 11 26 48 57 83 95 104
500 517 507 517 4 0 20 -7 36 -15z"/>
<path d="M10842 5180 c-18 -11 -41 -34 -52 -52 -23 -37 -26 -111 -7 -144 7
-12 105 -117 219 -235 l206 -213 -210 -215 c-116 -118 -214 -226 -219 -239
-15 -39 -10 -105 11 -139 26 -43 68 -63 135 -63 64 0 23 -36 383 332 220 225
252 265 252 312 0 73 -14 91 -287 372 -147 151 -280 282 -295 290 -38 20 -97
17 -136 -6z m367 -335 c236 -240 271 -279 271 -306 0 -26 -31 -62 -219 -257
-256 -266 -325 -332 -344 -332 -29 0 -67 40 -67 72 0 33 -6 26 332 374 78 79
118 128 118 143 0 15 -71 94 -225 252 -191 195 -225 234 -225 259 0 36 31 70
64 70 17 0 91 -69 295 -275z"/>
</g>
</svg>
